Coordinates
version=1
nRows=16
nColumns=40
inDegrees=yes

Units are S.I. units (second, meters, Newtons, ...)
Angles are in degrees.

endheader
time	pelvis_tilt	pelvis_list	pelvis_rotation	pelvis_tx	pelvis_ty	pelvis_tz	hip_flexion_r	hip_adduction_r	hip_rotation_r	knee_angle_r	knee_angle_r_beta	ankle_angle_r	subtalar_angle_r	mtp_angle_r	hip_flexion_l	hip_adduction_l	hip_rotation_l	knee_angle_l	knee_angle_l_beta	ankle_angle_l	subtalar_angle_l	mtp_angle_l	lumbar_extension	lumbar_bending	lumbar_rotation	arm_flex_r	arm_add_r	arm_rot_r	elbow_flex_r	pro_sup_r	wrist_flex_r	wrist_dev_r	arm_flex_l	arm_add_l	arm_rot_l	elbow_flex_l	pro_sup_l	wrist_flex_l	wrist_dev_l
     39.80628571	     -2.81745212	     -4.66462901	      7.81797320	      1.09051079	      0.93270621	      0.49446592	      6.18190558	      3.51353033	    -19.34865512	     13.37148066	     13.37148066	     11.91784074	     -0.09470173	     -4.19531067	     34.70164214	    -10.97385220	      0.31202373	     44.43333622	     44.43333622	      8.83086612	    -16.95628210	     12.26559149	     -9.74669344	      6.71293174	      3.94799858	     24.81952736	    -16.46106851	    -13.69580830	     43.52202766	     46.17936665	      0.00000000	      0.00000000	      2.93893618	     -6.57306124	      2.30306483	     33.65886601	     46.36248124	      0.00000000	      0.00000000
     39.81757143	     -2.90126674	     -4.79957461	      8.00122241	      1.08924460	      0.93237222	      0.49447907	      5.24809785	      3.85737664	    -19.73952517	     12.41110577	     12.41110577	     12.04513191	      0.71622891	     -4.41226718	     35.00365303	    -10.72481450	      0.14237001	     40.52969545	     40.52969545	      8.71488799	    -16.13817743	     12.14369760	     -9.76347230	      6.81864433	      3.88540618	     26.90361321	    -16.68865655	    -13.32688688	     45.80249614	     46.08113237	      0.00000000	      0.00000000	      1.75080400	     -6.46391167	      2.68850919	     30.96668664	     46.27755144	      0.00000000	      0.00000000
     39.82885714	     -3.07329380	     -4.96480766	      8.10914826	      1.08811642	      0.93166759	      0.49446153	      4.43050548	      4.18547852	    -20.27975369	     11.51260372	     11.51260372	     12.11244927	      1.85645217	     -5.14215879	     35.22680279	    -10.53877272	     -0.14703306	     36.44742204	     36.44742204	      7.99465213	    -15.13930298	     10.53587660	     -9.63506840	      6.94018060	      4.76118638	     27.73025814	    -17.91762473	    -12.17106184	     49.77506017	     45.86664245	      0.00000000	      0.00000000	      1.70709703	     -6.01644499	      3.43912876	     26.41929922	     46.13097391	      0.00000000	      0.00000000
     39.84014286	     -3.31048830	     -5.07662987	      8.15998413	      1.08707432	      0.93080032	      0.49445879	      3.74667540	      4.49248098	    -20.30723975	     10.74338712	     10.74338712	     12.34628073	      2.23560560	     -5.17642941	     35.42147493	    -10.29137797	     -0.45563912	     32.47288078	     32.47288078	      8.03401434	    -13.66831003	     10.96681135	     -9.43144208	      6.92056868	      4.88348035	     29.85742343	    -18.09258730	    -12.23943038	     51.31084277	     45.82389084	      0.00000000	      0.00000000	      0.09410710	     -6.03746198	      3.54076981	     25.47231646	     46.08121192	      0.00000000	      0.00000000
     39.85142857	     -3.38169151	     -5.26421373	      8.21415191	      1.08633782	      0.92998366	      0.49438474	      2.74518579	      4.92953362	    -20.48721506	      9.72453901	      9.72453901	     12.53089088	      3.03973957	     -5.24871074	     35.39849529	    -10.16269035	     -0.79843700	     28.67338570	     28.67338570	      8.00769839	    -11.93728887	     11.35235646	     -9.41655848	      7.07948229	      4.67547542	     32.03114441	    -17.95394895	    -12.16783771	     53.36264553	     45.75614119	      0.00000000	      0.00000000	     -1.65515826	     -6.18040348	      3.70003970	     24.21576490	     46.01893470	      0.00000000	      0.00000000
     39.86271429	     -3.52427756	     -5.49132105	      8.23261593	      1.08577442	      0.92883470	      0.49421262	      1.85937852	      5.37595632	    -20.68681041	      8.80781999	      8.80781999	     12.74924996	      3.85938998	     -5.37105915	     35.42637471	    -10.07209877	     -1.15650381	     25.16971733	     25.16971733	      8.02004275	    -10.09044789	     11.77192175	     -9.23915385	      7.24441232	      4.66417612	     34.07685737	    -17.94275275	    -12.03574951	     55.37703725	     45.68781231	      0.00000000	      0.00000000	     -3.26779955	     -6.20261681	      3.86070049	     23.16177056	     45.95763715	      0.00000000	      0.00000000
     39.87400000	     -3.62478860	     -5.69897807	      8.20468158	      1.08539672	      0.92760178	      0.49396723	      0.91400544	      5.79906052	    -20.85813497	      7.89293301	      7.89293301	     12.96970413	      4.75544634	     -5.49360055	     35.39988207	    -10.00839433	     -1.64207817	     22.08703081	     22.08703081	      8.01661742	     -8.23972043	     12.27542596	     -9.13339584	      7.41120031	      4.62948704	     36.01745863	    -17.89071405	    -11.82239599	     57.55555277	     45.61079110	      0.00000000	      0.00000000	     -4.92254930	     -6.25422003	      4.03213204	     22.21740089	     45.89074997	      0.00000000	      0.00000000
     39.88528571	     -3.72467792	     -5.91271846	      8.15583831	      1.08516982	      0.92619068	      0.49359458	     -0.01938354	      6.20863434	    -21.00995824	      7.03024779	      7.03024779	     13.21096401	      5.69647781	     -5.60470636	     35.47158813	     -9.96674663	     -2.15952145	     19.66839113	     19.66839113	      8.09121444	     -6.52478695	     12.81892150	     -9.05013436	      7.61429658	      4.63760260	     37.84606700	    -17.87319977	    -11.50360137	     59.95736993	     45.52271261	      0.00000000	      0.00000000	     -6.56607755	     -6.26915755	      4.24311198	     21.51818407	     45.81041839	      0.00000000	      0.00000000
     39.89657143	     -3.87108818	     -6.10437787	      8.06877726	      1.08507693	      0.92466297	      0.49319921	     -0.78099319	      6.54344817	    -21.00331788	      6.44768985	      6.44768985	     13.54707399	      6.28441221	     -5.68352334	     35.55825900	     -9.90623722	     -2.71760982	     17.72575246	     17.72575246	      7.99904931	     -5.25181725	     13.36004639	     -8.80747917	      7.74477886	      4.80245055	     39.59347847	    -17.92263933	    -11.31537809	     61.83508063	     45.45907194	      0.00000000	      0.00000000	     -8.18768274	     -6.33051901	      4.37613164	     21.03760846	     45.74429301	      0.00000000	      0.00000000
     39.90785714	     -3.97810646	     -6.24498547	      7.95074052	      1.08512489	      0.92312273	      0.49262826	     -1.57888430	      6.80329608	    -20.93109317	      5.90890562	      5.90890562	     13.91229933	      6.85575278	     -5.69442626	     35.67283731	     -9.82510509	     -3.29261400	     16.51732325	     16.51732325	      7.94995679	     -4.34661918	     13.72948974	     -8.66368655	      7.82627349	      4.84780357	     41.30326801	    -17.82306166	    -11.07073680	     63.84536273	     45.38929108	      0.00000000	      0.00000000	     -9.89648881	     -6.40176611	      4.52015734	     20.74613638	     45.66901897	      0.00000000	      0.00000000
     39.91914286	     -4.09636944	     -6.40351651	      7.82002161	      1.08534068	      0.92147089	      0.49194801	     -2.33614028	      7.04274759	    -21.05285165	      5.47583348	      5.47583348	     14.44085718	      7.70008943	     -5.37166356	     35.93070195	     -9.80242432	     -3.88829397	     16.14650947	     16.14650947	      8.09773519	     -3.68624696	     14.02248283	     -8.53538964	      7.97910362	      4.97885808	     42.47747313	    -18.02874687	    -10.30024508	     67.09038663	     45.26342619	      0.00000000	      0.00000000	    -11.89590841	     -6.61693131	      5.13349248	     21.73893823	     45.45574130	      0.00000000	      0.00000000
     39.93042857	     -4.32121178	     -6.39654080	      7.59661468	      1.08550819	      0.91980745	      0.49114086	     -2.82750862	      7.01724495	    -20.77668374	      5.36373411	      5.36373411	     14.88072662	      7.86861300	     -5.42740405	     36.11991827	     -9.59156516	     -4.28182538	     16.08425088	     16.08425088	      7.88748171	     -3.86553501	     14.08966894	     -8.21625781	      7.85713733	      5.40533805	     44.06028205	    -18.24522103	    -10.39256586	     67.94406503	     45.24619030	      0.00000000	      0.00000000	    -13.24208754	     -6.65009507	      5.19893969	     21.33668590	     45.41378494	      0.00000000	      0.00000000
     39.94171429	     -4.42455125	     -6.42229054	      7.42324557	      1.08592436	      0.91823919	      0.49013179	     -3.46786722	      7.03339409	    -20.57154116	      5.25191133	      5.25191133	     15.42947699	      8.13424678	     -5.13111299	     36.18198147	     -9.40519015	     -4.45042246	     16.51323285	     16.51323285	      7.50278083	     -4.42514882	     13.66218012	     -8.09996370	      7.85394704	      4.98632563	     45.63363860	    -17.48201967	    -10.03820148	     70.13275079	     45.17126467	      0.00000000	      0.00000000	    -15.08525533	     -6.60574793	      5.57313054	     21.55623019	     45.28138821	      0.00000000	      0.00000000
     39.95300000	     -4.52539755	     -6.45123056	      7.19192511	      1.08647157	      0.91662865	      0.48897689	     -3.99421778	      6.97967252	    -20.34728864	      5.39814311	      5.39814311	     16.00729456	      8.29556414	     -4.93301933	     36.22272794	     -9.23934292	     -4.46407218	     17.38330258	     17.38330258	      7.09457905	     -5.33071502	     13.13811418	     -7.90776028	      7.85633067	      5.11356963	     46.98122780	    -17.33791814	     -9.86790366	     71.54232449	     45.12852030	      0.00000000	      0.00000000	    -16.62907090	     -6.65021130	      5.82134761	     21.79128921	     45.18653658	      0.00000000	      0.00000000
     39.96428571	     -4.70328296	     -6.40682949	      6.91768025	      1.08716326	      0.91499018	      0.48762534	     -4.42320715	      6.79978378	    -20.09879098	      5.61114622	      5.61114622	     16.64187844	      8.45447900	     -4.63015375	     36.20020520	     -8.98302962	     -4.36316635	     18.37436688	     18.37436688	      6.39823718	     -6.48528288	     12.48246210	     -7.66334204	      7.76306745	      5.11404226	     48.18768105	    -17.11980629	     -9.63222418	     73.06902536	     45.08061325	      0.00000000	      0.00000000	    -18.14672963	     -6.59890722	      6.12692502	     22.21896559	     45.08095791	      0.00000000	      0.00000000
     39.97557143	     -4.77540294	     -6.29266714	      6.62750078	      1.08814466	      0.91358852	      0.48603304	     -4.89822771	      6.48158372	    -19.91968422	      6.05246419	      6.05246419	     17.47780936	      8.73126821	     -3.75259976	     35.84053237	     -8.61603402	     -3.99197686	     19.23917056	     19.23917056	      5.22021163	     -8.02680722	     10.98840614	     -7.49995173	      7.61744751	      5.23826358	     49.06909215	    -17.06235874	     -9.22546723	     74.91385065	     45.02743863	      0.00000000	      0.00000000	    -19.87071960	     -6.79161590	      6.93279264	     23.56183204	     44.87112253	      0.00000000	      0.00000000
